<?xml version="1.0" encoding="utf-8"?><svg id="Lager_1" data-name="Lager 1" xmlns="http://www.w3.org/2000/svg" xmlns:xlink="http://www.w3.org/1999/xlink" viewBox="0 0 365.31322 365.29696"><defs><style>.cls-1,.cls-2,.cls-3,.cls-4,.cls-5{fill:none;stroke-miterlimit:10;stroke-width:3px;}.cls-1{stroke:url(#Ny_övertoningsruta_1);}.cls-2{stroke:url(#Ny_övertoningsruta_1-3);}.cls-3{stroke:url(#Ny_övertoningsruta_1-4);}.cls-4{stroke:url(#Ny_övertoningsruta_1-5);}.cls-5{stroke:url(#Ny_övertoningsruta_1-6);}</style><linearGradient id="Ny_övertoningsruta_1" x1="778.29378" y1="540.99541" x2="1143.607" y2="540.99541" gradientUnits="userSpaceOnUse"><stop offset="0" stop-color="#ccb87a"/><stop offset="1" stop-color="#907747"/></linearGradient><linearGradient id="Ny_övertoningsruta_1-3" x1="811.14998" y1="541.1435" x2="1110.63347" y2="541.1435" xlink:href="#Ny_övertoningsruta_1"/><linearGradient id="Ny_övertoningsruta_1-4" x1="866.36538" y1="541.03402" x2="1055.77437" y2="541.03402" xlink:href="#Ny_övertoningsruta_1"/><linearGradient id="Ny_övertoningsruta_1-5" x1="1034.3539" y1="444.27771" x2="1081.09867" y2="444.27771" xlink:href="#Ny_övertoningsruta_1"/><linearGradient id="Ny_övertoningsruta_1-6" x1="899.26708" y1="541.02249" x2="1022.71219" y2="541.02249" xlink:href="#Ny_övertoningsruta_1"/></defs><title>insta</title><path class="cls-1" d="M1142.09009,513.7q.10473,45.975-.54,91.94c-.28,18.16-1.76,36.25-8.59009,53.4-3.44995,8.68-7.40991,17.09-13.77,24.11C1105.86,701.02,1087.77,711.47,1066.5,716.92c-17.57007,4.49-35.59009,4.8-53.54,4.94-38.8.3-77.61.6-116.4-.44-17.66-.47-35.27-1.69-52.02-8.04-35.51-13.46-55.28-39.86-61.4-76.65-4.39-26.37-3.12-53.1-3.11-79.72-.03-35.12-1.23-70.27,2.08-105.31,4.47-47.47,37.14-81.86,84.51-88.71,22.08-3.19,44.37-3.08,66.62-3.07,30.81.02,61.63-.38995,92.42993.54,17.49.52,34.95008,1.65,51.54,7.94,35.68005,13.53,55.43005,40.05,61.7,77.05C1142.73,468.03,1142.03,490.91,1142.09009,513.7Z" transform="translate(-778.29378 -358.34693)"/><path class="cls-1" d="M1138.90991,445.45c-6.2699-37-26.0199-63.52-61.7-77.05-16.59-6.29-34.05-7.42-51.54-7.94-30.79992-.93-61.61993-.52-92.42993-.54-22.25-.01-44.54-.12-66.62,3.07-47.37,6.85-80.04,41.24-84.51,88.71-3.31,35.04-2.11,70.19-2.08,105.31-.01,26.62-1.28,53.35,3.11,79.72,6.12,36.79,25.89,63.19,61.4,76.65,16.75,6.35,34.36,7.57,52.02,8.04,38.79,1.04,77.6.74,116.4.44,17.94989-.14,35.96991-.45,53.54-4.94,21.27-5.45,39.36-15.9,52.68994-33.77,6.36011-7.02,10.32007-15.43005,13.77-24.11,6.83008-17.15,8.31006-35.24,8.59009-53.4q.705-45.96.54-91.94C1142.03,490.91,1142.73,468.03,1138.90991,445.45ZM1108.72,601.71c-.23,17.8-1.15991,35.66-9.35,52.11-11.54993,20.51-29.6,30.93-52.55994,33.11C1003.17,691.08,959.38,688.55,915.66,689.13c-7.65.1-15.3.1-22.95-.09-16.03-.4-31.86-2.51-46.12-10.28-15.93006-8.68-25.17-22.79-29.53-40.22-3.65-14.66-3.6-29.67-3.99-44.61-.38-14.97-.3-29.95-.42-44.93.17-22.81.06-45.64.61-68.44.33-13.94.67-27.96,5.04-41.47,7.28-22.5,22.67-36.21,45.34-42.09,13.83-3.58,28.04-3.8,42.14-3.9q57.97494-.42,115.93994.15c13.8501.15,27.75.93,41.2,5.22C1087.61,406.34,1101.22,423.66,1106,448.49c3.15991,16.43,3.03,33.14,3.08008,49.77C1109.17993,532.74,1109.17993,567.23,1108.72,601.71Z" transform="translate(-778.29378 -358.34693)"/><path class="cls-2" d="M1109.08008,498.26c-.05005-16.63.07983-33.34-3.08008-49.77-4.78-24.83-18.39-42.15-43.08008-50.02-13.44995-4.29-27.34985-5.07-41.2-5.22Q963.76,392.65,905.78,393.1c-14.1.1-28.31006.32-42.14,3.9-22.67,5.88-38.06,19.59-45.34,42.09-4.37,13.51-4.71,27.53-5.04,41.47-.55,22.8-.44,45.63-.61,68.44.12,14.98.04,29.96.42,44.93.39,14.94.34,29.95,3.99,44.61,4.36,17.43,13.6,31.54,29.53,40.22,14.26,7.77,30.09,9.88,46.12,10.28,7.65.19,15.3.19,22.95.09,43.72-.58,87.51,1.95,131.15009-2.2,22.96-2.18,41.01-12.6,52.55994-33.11,8.19006-16.45,9.12-34.31,9.35-52.11C1109.17993,567.23,1109.17993,532.74,1109.08008,498.26Zm-77.04,102.72C1018.8,617.18,1001.8,627.78,981.46,631.77c-40.35,7.91-73.14-5.12-97.41-38.35-9.58-13.12-14.6-28.2-15.71-44.48-5.07-47.85,31.1-93.81,78.69-100,50.98-6.63,95.46,24.42,105.34,74.65C1058.01,552.26,1051.09009,578.4,1032.04,600.98Zm25.36987-134.83A21.49965,21.49965,0,0,1,1035.85,444.12c.1-12.01,10.20007-21.96,22.04-21.71a21.87149,21.87149,0,1,1-.4801,43.74Z" transform="translate(-778.29378 -358.34693)"/><path class="cls-3" d="M1052.37,523.59c-9.88-50.23-54.36-81.28-105.34-74.65-47.59,6.19-83.76,52.15-78.69,100,1.11,16.28,6.12994,31.36,15.71,44.48,24.27,33.23,57.06,46.26,97.41,38.35,20.34-3.99,37.34-14.59,50.58-30.79C1051.09009,578.4,1058.01,552.26,1052.37,523.59Zm-119.39,70.5c-16.93-8.89-27.12-23.07-31.05-41.78-.24-1.13-.59-2.24-.89-3.36-1.47-18.26,2.9-34.73,15.51-48.4,15.88-17.2,35.73-23.33,58.23-17.97,22.78,5.43,37.87994,20.05,44.14,42.88,5.82,21.22.3,39.93-13.63995,56.5C983.52,602.5,957.57,607.01,932.98,594.09Z" transform="translate(-778.29378 -358.34693)"/><path class="cls-4" d="M1057.40894,466.14766a21.4948,21.4948,0,0,1-21.55423-22.02594c.09866-12.01335,10.194-21.95844,22.03808-21.71a21.86947,21.86947,0,1,1-.48385,43.736Z" transform="translate(-778.29378 -358.34693)"/><path class="cls-5" d="M1005.28,581.96c-21.76,20.54-47.71,25.05-72.30005,12.13-16.93-8.89-27.12-23.07-31.05-41.78-.24-1.13-.59-2.24-.89-3.36-1.47-18.26,2.9-34.73,15.51-48.4,15.88-17.2,35.73-23.33,58.23-17.97,22.78,5.43,37.87994,20.05,44.14,42.88C1024.74,546.68,1019.22,565.39,1005.28,581.96Z" transform="translate(-778.29378 -358.34693)"/></svg>