<?xml version="1.0" encoding="utf-8"?><svg xmlns="http://www.w3.org/2000/svg" xmlns:xlink="http://www.w3.org/1999/xlink" viewBox="0 0 542 542"><defs><style>.cls-1{fill:none;stroke-miterlimit:10;stroke-width:30px;stroke:url(#Ny_övertoningsruta_1);}.cls-2{fill:url(#Ny_övertoningsruta_1-2);}.cls-3{fill:url(#Ny_övertoningsruta_1-3);}.cls-4{fill:url(#Ny_övertoningsruta_1-4);}.cls-5{fill:url(#Ny_övertoningsruta_1-5);}</style><linearGradient id="Ny_övertoningsruta_1" y1="271" x2="542" y2="271" gradientUnits="userSpaceOnUse"><stop offset="0" stop-color="#ccb87a"/><stop offset="1" stop-color="#907747"/></linearGradient><linearGradient id="Ny_övertoningsruta_1-2" x1="252.68466" y1="659.87736" x2="560.67605" y2="659.87736" xlink:href="#Ny_övertoningsruta_1"/><linearGradient id="Ny_övertoningsruta_1-3" x1="236.54347" y1="697.50835" x2="339.93435" y2="697.50835" xlink:href="#Ny_övertoningsruta_1"/><linearGradient id="Ny_övertoningsruta_1-4" x1="250.06717" y1="760.98416" x2="564.60228" y2="760.98416" xlink:href="#Ny_övertoningsruta_1"/><linearGradient id="Ny_övertoningsruta_1-5" x1="474.70027" y1="696.72213" x2="578.12598" y2="696.72213" xlink:href="#Ny_övertoningsruta_1"/></defs><title>mail</title><g id="Lager_1" data-name="Lager 1"><circle class="cls-1" cx="271" cy="271" r="256"/></g><g id="Lager_4" data-name="Lager 4"><path class="cls-2" d="M252.68466,587.38579H560.67605L425.97438,724.94315a27.15059,27.15059,0,0,1-37.31415,0Z" transform="translate(-143 -430)"/><path class="cls-3" d="M244.93562,602.68828l94.99873,93.75961L245.4066,792.20861a5.178,5.178,0,0,1-8.56679-1.91105h0a5.17791,5.17791,0,0,1-.29634-1.72658V606.19674a4.92949,4.92949,0,0,1,.33518-1.78666h0A4.92946,4.92946,0,0,1,244.93562,602.68828Z" transform="translate(-143 -430)"/><path class="cls-4" d="M351.2768,707.3541,250.06717,808.12749h0a42.57046,42.57046,0,0,0,19.503,4.85948l276.94014,1.62666a33.512,33.512,0,0,0,18.092-5.17739h0L462.9564,707.3541,427.016,740.18153a29.086,29.086,0,0,1-39.064.15186Z" transform="translate(-143 -430)"/><path class="cls-5" d="M476.21572,698.81659,569.24,792.23673a5.20071,5.20071,0,0,0,8.58833-1.9355h0a5.20078,5.20078,0,0,0,.29763-1.73414V607.78056a5.20071,5.20071,0,0,0-1.42524-3.57676l-2.75249-2.90541a5.20071,5.20071,0,0,0-7.45293-.1007l-90.2718,90.2718A5.20072,5.20072,0,0,0,476.21572,698.81659Z" transform="translate(-143 -430)"/></g></svg>