<?xml version="1.0" encoding="utf-8"?><svg id="Lager_4" data-name="Lager 4" xmlns="http://www.w3.org/2000/svg" xmlns:xlink="http://www.w3.org/1999/xlink" viewBox="0 0 659.53264 658.05106"><defs><style>.cls-1{fill:url(#Ny_övertoningsruta_1);}.cls-2{fill:url(#Ny_övertoningsruta_1-2);}.cls-10,.cls-3,.cls-4,.cls-5,.cls-6,.cls-7,.cls-8,.cls-9{fill:none;stroke-miterlimit:10;stroke-width:2px;}.cls-3{stroke:url(#Ny_övertoningsruta_1-3);}.cls-4{stroke:url(#Ny_övertoningsruta_1-4);}.cls-5{stroke:url(#Ny_övertoningsruta_1-5);}.cls-6{stroke:url(#Ny_övertoningsruta_1-6);}.cls-7{stroke:url(#Ny_övertoningsruta_1-7);}.cls-8{stroke:url(#Ny_övertoningsruta_1-8);}.cls-9{stroke:url(#Ny_övertoningsruta_1-9);}.cls-10{stroke:url(#Ny_övertoningsruta_1-10);}.cls-11{fill:url(#Ny_övertoningsruta_1-11);}.cls-12{fill:url(#Ny_övertoningsruta_1-12);}.cls-13{fill:#fff;}</style><linearGradient id="Ny_övertoningsruta_1" x1="831.46997" y1="337.70999" x2="968.27002" y2="337.70999" gradientUnits="userSpaceOnUse"><stop offset="0" stop-color="#ccb87a"/><stop offset="1" stop-color="#907747"/></linearGradient><linearGradient id="Ny_övertoningsruta_1-2" x1="722.65997" y1="361.04001" x2="959.60999" y2="361.04001" xlink:href="#Ny_övertoningsruta_1"/><linearGradient id="Ny_övertoningsruta_1-3" x1="679.99569" y1="419.58336" x2="958.34211" y2="419.58336" xlink:href="#Ny_övertoningsruta_1"/><linearGradient id="Ny_övertoningsruta_1-4" x1="679.9957" y1="566.75658" x2="958.34211" y2="566.75658" xlink:href="#Ny_övertoningsruta_1"/><linearGradient id="Ny_övertoningsruta_1-5" x1="721.28145" y1="624.62831" x2="962.34193" y2="624.62831" xlink:href="#Ny_övertoningsruta_1"/><linearGradient id="Ny_övertoningsruta_1-6" x1="830.09676" y1="647.2711" x2="969.27002" y2="647.2711" xlink:href="#Ny_övertoningsruta_1"/><linearGradient id="Ny_övertoningsruta_1-7" x1="977.27002" y1="647.2711" x2="1116.44333" y2="647.2711" xlink:href="#Ny_övertoningsruta_1"/><linearGradient id="Ny_övertoningsruta_1-8" x1="984.19793" y1="624.62825" x2="1225.25875" y2="624.62825" xlink:href="#Ny_övertoningsruta_1"/><linearGradient id="Ny_övertoningsruta_1-9" x1="988.1981" y1="566.76169" x2="1266.54454" y2="566.76169" xlink:href="#Ny_övertoningsruta_1"/><linearGradient id="Ny_övertoningsruta_1-10" x1="988.1981" y1="419.57825" x2="1266.54455" y2="419.57825" xlink:href="#Ny_övertoningsruta_1"/><linearGradient id="Ny_övertoningsruta_1-11" x1="986.92999" y1="361.04001" x2="1223.88" y2="361.04001" xlink:href="#Ny_övertoningsruta_1"/><linearGradient id="Ny_övertoningsruta_1-12" x1="978.27002" y1="337.70999" x2="1115.07007" y2="337.70999" xlink:href="#Ny_övertoningsruta_1"/></defs><title>month</title><path class="cls-1" d="M968.27,200.91v273.6L831.47,237.57C875.09,213.21,918.32,201.63,968.27,200.91Z" transform="translate(-644.33162 -167.64697)"/><path class="cls-2" d="M959.61,479.51,722.66,342.71c25.6-42.9,57.24005-74.55,100.15-100.14Z" transform="translate(-644.33162 -167.64697)"/><path class="cls-3" d="M954.61,488.17H681.01c.71-49.94,12.29-93.17,36.65-136.8Z" transform="translate(-644.33162 -167.64697)"/><path class="cls-4" d="M954.61,498.17,717.66,634.97c-24.36-43.62-35.94-86.85-36.65-136.8Z" transform="translate(-644.33162 -167.64697)"/><path class="cls-5" d="M959.61,506.83,822.81,743.78c-42.91-25.6-74.55-57.24-100.15-100.15Z" transform="translate(-644.33162 -167.64697)"/><path class="cls-6" d="M968.27,511.83v273.6c-49.95-.71-93.18-12.29-136.80005-36.65Z" transform="translate(-644.33162 -167.64697)"/><path class="cls-7" d="M1115.07007,748.78c-43.63013,24.36-86.86011,35.93994-136.8,36.65V511.83Z" transform="translate(-644.33162 -167.64697)"/><path class="cls-8" d="M1223.88,643.64c-25.61,42.9-57.25,74.54-100.15,100.14L986.93,506.83Z" transform="translate(-644.33162 -167.64697)"/><path class="cls-9" d="M1265.53,498.17c-.72,49.96-12.31006,93.19-36.65,136.81L991.93,498.17Z" transform="translate(-644.33162 -167.64697)"/><path class="cls-10" d="M1265.53,488.17H991.93l236.95-136.81C1253.22,394.99,1264.81006,438.22,1265.53,488.17Z" transform="translate(-644.33162 -167.64697)"/><path class="cls-11" d="M1223.88,342.7,986.93,479.51l136.8-236.94C1166.63,268.16,1198.27,299.81,1223.88,342.7Z" transform="translate(-644.33162 -167.64697)"/><path class="cls-12" d="M1115.07007,237.57,978.27,474.51V200.91C1028.21,201.63,1071.43994,213.21,1115.07007,237.57Z" transform="translate(-644.33162 -167.64697)"/><path class="cls-13" d="M887.90234,183.69482a16.06283,16.06283,0,0,1,.81836,6.30664,11.58139,11.58139,0,0,1-1.6875,5.14747,13.39017,13.39017,0,0,1-3.86963,3.9497,21.45473,21.45473,0,0,1-5.69091,2.70069q-1.6018.5061-3.56983.98144a21.933,21.933,0,0,1-3.65283.58789l-8.1001-25.63086a21.99463,21.99463,0,0,1,3.32715-1.61767q1.88379-.74121,3.48584-1.24854a21.47412,21.47412,0,0,1,6.20947-1.06006,13.40252,13.40252,0,0,1,5.43653,1.00879,11.58058,11.58058,0,0,1,4.33886,3.24317A16.0664,16.0664,0,0,1,887.90234,183.69482Zm-11.14892,14.76612q5.26319-1.66334,7.00732-5.17237,1.74316-3.50829.21289-8.352-1.53075-4.8435-4.97412-6.71338-3.44385-1.86914-8.70654-.20605-1.56445.49438-2.41016.80371-.84594.30981-1.17724.45606l6.38818,20.21435q.356-.06958,1.22559-.30322Q875.18945,198.95507,876.75342,198.46094Z" transform="translate(-644.33162 -167.64697)"/><path class="cls-13" d="M893.51025,185.93457a13.2715,13.2715,0,0,1-.292-4.87744,10.07315,10.07315,0,0,1,1.30615-3.80567,8.61535,8.61535,0,0,1,2.50977-2.665,9.50606,9.50606,0,0,1,3.28076-1.44629,8.00933,8.00933,0,0,1,6.86133,1.12207q2.76636,2.0559,3.959,7.28174.05347.23364.13819.60449a5.814,5.814,0,0,1,.1167.6914l-13.8833,3.16748a7.61054,7.61054,0,0,0,2.92724,4.37842q1.97241,1.27368,5.36572.499a13.63842,13.63842,0,0,0,3.14161-1.06543,11.86016,11.86016,0,0,0,1.82226-1.09278l1.20117,2.92627a11.08755,11.08755,0,0,1-2.15136,1.27,16.94415,16.94415,0,0,1-3.67432,1.249,12.24588,12.24588,0,0,1-4.76465.2456,8.76278,8.76278,0,0,1-3.68115-1.478,9.20764,9.20764,0,0,1-2.61279-2.91162A14.44343,14.44343,0,0,1,893.51025,185.93457ZM906.979,180.769a6.24751,6.24751,0,0,0-2.14941-3.75586,4.33885,4.33885,0,0,0-3.85059-.7832,4.9039,4.9039,0,0,0-2.09228.99023,5.33256,5.33256,0,0,0-1.3291,1.63672,5.98059,5.98059,0,0,0-.62451,2.02979,9.08537,9.08537,0,0,0-.01563,2.17822Z" transform="translate(-644.33162 -167.64697)"/><path class="cls-13" d="M927.34766,190.20215a11.32561,11.32561,0,0,1-4.49121-.09131,8.87486,8.87486,0,0,1-3.51368-1.70557,9.29112,9.29112,0,0,1-2.45654-3.07031,14.16983,14.16983,0,0,1-1.32471-4.22363,13.24359,13.24359,0,0,1-.00439-4.45557,10.38479,10.38479,0,0,1,1.40771-3.72949,8.87293,8.87293,0,0,1,2.74024-2.74756,10.15992,10.15992,0,0,1,3.958-1.46435,16.5666,16.5666,0,0,1,2.80273-.20606,12.96026,12.96026,0,0,1,2.7666.32666l-.32959,3.25342a8.97449,8.97449,0,0,0-2.01709-.3252,10.97664,10.97664,0,0,0-2.34814.13282,5.91636,5.91636,0,0,0-4.41016,2.6914,8.63325,8.63325,0,0,0-.73437,5.91016,11.71552,11.71552,0,0,0,.86181,2.98144,6.35746,6.35746,0,0,0,1.56446,2.18018,5.35243,5.35243,0,0,0,2.31738,1.18848,8.01472,8.01472,0,0,0,3.166.03955,11.79752,11.79752,0,0,0,2.60206-.7002,9.73416,9.73416,0,0,0,1.76123-.88965l1.00683,2.99854a3.88461,3.88461,0,0,1-.84814.52051,12.95227,12.95227,0,0,1-1.29248.53125q-.728.25781-1.56153.49316A14.49872,14.49872,0,0,1,927.34766,190.20215Z" transform="translate(-644.33162 -167.64697)"/><path class="cls-13" d="M1050.50879,186.83887a15.638,15.638,0,0,1-1.23828,3.53271,7.53527,7.53527,0,0,1-2.11621,2.61426,7.08308,7.08308,0,0,1-3.22266,1.356,11.68258,11.68258,0,0,1-4.51269-.27246,13.07445,13.07445,0,0,1-4.27149-1.77637,11.2588,11.2588,0,0,1-1.39941-1.05859,5.98023,5.98023,0,0,1-.8877-.96192l2.168-2.66406a15.959,15.959,0,0,0,1.84375,1.71435,7.53843,7.53843,0,0,0,3.10938,1.3877,5.4022,5.4022,0,0,0,4.41992-.48779q1.61133-1.12867,2.40527-4.59961L1050.916,167.647l3.78222.86426Z" transform="translate(-644.33162 -167.64697)"/><path class="cls-13" d="M1066.84961,178.53857a10.7866,10.7866,0,0,1,3.45605,1.6377,6.13512,6.13512,0,0,1,1.90723,2.28125,6.22917,6.22917,0,0,1,.5625,2.79834,12.2167,12.2167,0,0,1-.53906,3.19971l-3.7207,12.45605q-.48341-.06006-1.34668-.17285-.86573-.11133-1.9336-.30615-1.06934-.1941-2.30469-.459-1.23632-.26586-2.4248-.62011a13.69837,13.69837,0,0,1-3.001-1.272,7.25265,7.25265,0,0,1-2.12695-1.82519,5.21677,5.21677,0,0,1-1.01953-2.45459,7.19733,7.19733,0,0,1,.30664-3.12305,5.93173,5.93173,0,0,1,1.51758-2.63574,5.58112,5.58112,0,0,1,2.39355-1.37256,8.80189,8.80189,0,0,1,3.00293-.27148,15.24705,15.24705,0,0,1,3.32227.6167q.5376.16039,1.09472.38964.5581.22926,1.04688.4795.48779.25048.84863.4414.36036.1919.502.27539l.29786-.99658a8.346,8.346,0,0,0,.3291-1.80078,4.16894,4.16894,0,0,0-.23145-1.73926,3.65052,3.65052,0,0,0-1.04-1.47949,5.57369,5.57369,0,0,0-2.12207-1.07227,17.61009,17.61009,0,0,0-3.15918-.67285,11.37958,11.37958,0,0,0-2.1289-.07226l.46-3.07666a11.4752,11.4752,0,0,1,2.47754.09277A20.73062,20.73062,0,0,1,1066.84961,178.53857Zm-5.02832,17.95166q1.26416.37794,2.25879.61231a10.198,10.198,0,0,0,1.6914.27588l1.7754-5.94043a4.80074,4.80074,0,0,0-1.14844-.69824,14.49828,14.49828,0,0,0-2.04883-.75782,13.98909,13.98909,0,0,0-1.74023-.39453,5.47915,5.47915,0,0,0-1.791-.01318,3.69,3.69,0,0,0-1.543.624,2.7313,2.7313,0,0,0-.99609,1.51856,2.98622,2.98622,0,0,0,.43066,3.02978A6.65363,6.65363,0,0,0,1061.82129,196.49023Z" transform="translate(-644.33162 -167.64697)"/><path class="cls-13" d="M1080.96387,184.15674q1.30956.15234,3.4209.564a29.43522,29.43522,0,0,1,4.69336,1.38575,10.54315,10.54315,0,0,1,3.60742,2.10937,6.45077,6.45077,0,0,1,1.75976,2.75879,7.59608,7.59608,0,0,1,.22461,3.313,17.52157,17.52157,0,0,1-.99512,3.771l-4.124,10.92823-3.48047-1.31348,3.84082-10.1792a17.76435,17.76435,0,0,0,.915-3.16064,5.55185,5.55185,0,0,0-.02832-2.36182,3.40413,3.40413,0,0,0-1.06543-1.70654,7.0446,7.0446,0,0,0-2.18652-1.231c-.374-.14111-.7666-.27441-1.17481-.40039q-.6123-.18824-1.17675-.33691-.564-.14869-1.02246-.23633-.45851-.08716-.65918-.12061l-6.19922,16.4292-3.48047-1.313Z" transform="translate(-644.33162 -167.64697)"/><path class="cls-13" d="M1171.52344,258.83838l18.40918-20.72412,12.5,11.10449-2.20508,2.48193-9.59863-8.52734-5.55274,6.25,8.52344,7.57129-2.17871,2.45215-8.52246-7.57129-8.47461,9.53955Z" transform="translate(-644.33162 -167.64697)"/><path class="cls-13" d="M1193.0918,264.29053a13.26549,13.26549,0,0,1,3.998-2.8086,10.0684,10.0684,0,0,1,3.92481-.88574,8.61675,8.61675,0,0,1,3.58594.73779,9.50591,9.50591,0,0,1,2.95312,2.0337,8.00676,8.00676,0,0,1,2.64551,6.4292q-.29883,3.43433-4.12012,7.1914-.17139.16847-.44238.43506a5.6096,5.6096,0,0,1-.52734.46191l-9.98243-10.15478a7.60937,7.60937,0,0,0-2.19043,4.78955q-.04833,2.34668,2.39063,4.8291a13.60742,13.60742,0,0,0,2.55664,2.11475,11.81168,11.81168,0,0,0,1.88672.978L1197.90918,283a11.03981,11.03981,0,0,1-2.21-1.16455,16.974,16.974,0,0,1-2.99121-2.47217,12.25664,12.25664,0,0,1-2.71-3.92676,8.7526,8.7526,0,0,1-.67383-3.90918,9.20266,9.20266,0,0,1,1.10742-3.75244A14.45516,14.45516,0,0,1,1193.0918,264.29053Zm11.46484,8.75342a6.24616,6.24616,0,0,0,2.06934-3.80079,4.33808,4.33808,0,0,0-1.3545-3.689,4.90831,4.90831,0,0,0-1.94043-1.26123,5.3444,5.3444,0,0,0-2.09082-.27246,5.98763,5.98763,0,0,0-2.05566.53418,9.06384,9.06384,0,0,0-1.8623,1.12939Z" transform="translate(-644.33162 -167.64697)"/><path class="cls-13" d="M1219.27051,278.07861a10.01225,10.01225,0,0,1,2.03418.97461,9.67,9.67,0,0,1,2.4248,2.1128,9.42947,9.42947,0,0,1,1.96582,3.55175,8.26655,8.26655,0,0,1,.19629,3.69092,9.88031,9.88031,0,0,1-1.44433,3.61377,14.8047,14.8047,0,0,1-2.95215,3.3208,13.13923,13.13923,0,0,1-3.93946,2.375,9.55115,9.55115,0,0,1-3.96679.61279,9.2466,9.2466,0,0,1-3.76953-1.10156,11.66509,11.66509,0,0,1-3.375-2.80078,26.117,26.117,0,0,1-2.70313-3.73926q-1.021-1.75854-1.57519-2.96631l22.71484-19.29,2.89551,2.42138Zm-12.6836,10.771a11.98647,11.98647,0,0,0,.79395,1.39844,19.02962,19.02962,0,0,0,1.53711,2.02685,6.17245,6.17245,0,0,0,4.61621,2.377,8.06218,8.06218,0,0,0,5.44922-2.26612,13.44209,13.44209,0,0,0,2.0791-2.18554,6.77134,6.77134,0,0,0,1.17188-2.35938,5.02392,5.02392,0,0,0,.01562-2.45312,5.98452,5.98452,0,0,0-1.332-2.46436,7.38751,7.38751,0,0,0-2.208-1.79736,7.66576,7.66576,0,0,0-2.09277-.79493Z" transform="translate(-644.33162 -167.64697)"/><path class="cls-13" d="M1265.17578,386.51465q.769-.70166,1.9375-1.82373,1.16895-1.12134,2.53027-2.41944,1.36084-1.29784,2.78223-2.72265,1.4209-1.426,2.68848-2.68945,1.26708-1.26343,2.248-2.31788.98-1.05394,1.48536-1.66064-4.59082,1.18286-9.86036,2.78271-5.27051,1.59814-10.60644,3.30616l-1.28711-3.57569q3.44092-1.0686,6.95313-2.11914,3.51123-1.051,6.93066-2.00488,3.41895-.95435,6.68164-1.80908,3.26367-.85547,6.208-1.53223l1.15136,3.19922q-1.29052,1.61206-3.1289,3.59131-1.83839,1.979-3.88379,4.0332-2.04639,2.053-4.11816,4.03223-2.07276,1.97827-3.7793,3.61328,2.35693.17212,5.21484.37646t5.74317.48389q2.88428.27978,5.56347.63428,2.67774.353,4.69922.77441l1.15137,3.19922q-12.14794,5.81616-25.3916,11.30469l-1.28711-3.57569q5.20166-2.08446,10.28222-4.21,5.08008-2.12548,9.37207-4.13769-.7749-.14576-2.20312-.3335-1.42823-.1875-3.209-.35449-1.78125-.167-3.78516-.35937-2.00536-.19337-3.87988-.32569-1.87647-.1333-3.49121-.25293-1.6172-.12012-2.65528-.17138Z" transform="translate(-644.33162 -167.64697)"/><path class="cls-13" d="M1290.64355,409.37744a10.77949,10.77949,0,0,1,.39551,3.80371,6.12628,6.12628,0,0,1-.959,2.81446,6.21871,6.21871,0,0,1-2.09863,1.93408,12.18344,12.18344,0,0,1-3.01368,1.20215l-12.57617,3.29052q-.20068-.44385-.55273-1.24072-.353-.79687-.74219-1.811-.38966-1.0144-.80566-2.208-.41455-1.19385-.7295-2.39307a13.71588,13.71588,0,0,1-.47168-3.22558,7.23535,7.23535,0,0,1,.45508-2.76514,5.21344,5.21344,0,0,1,1.56738-2.147,7.211,7.211,0,0,1,2.82813-1.35987,5.9259,5.9259,0,0,1,3.041-.07226,5.569,5.569,0,0,1,2.415,1.332,8.81049,8.81049,0,0,1,1.793,2.42529,15.25715,15.25715,0,0,1,1.19825,3.15918,11.54513,11.54513,0,0,1,.23632,1.1377q.09375.59545.13379,1.14306c.02637.36524.04688.6836.06348.95508.01562.271.02344.46191.02539.57227l1.00586-.26319a8.37483,8.37483,0,0,0,1.71094-.65429,4.18469,4.18469,0,0,0,1.36523-1.10157,3.64107,3.64107,0,0,0,.72363-1.65722,5.562,5.562,0,0,0-.18554-2.37012,17.58572,17.58572,0,0,0-1.06641-3.04932,11.34263,11.34263,0,0,0-1.04394-1.85644l2.86816-1.20508a11.4217,11.4217,0,0,1,1.207,2.16455A20.70254,20.70254,0,0,1,1290.64355,409.37744Zm-17.95214,5.02783q.334,1.27736.65039,2.24854a10.13447,10.13447,0,0,0,.64355,1.58887l5.99805-1.56934a4.805,4.805,0,0,0,0-1.34375,14.6203,14.6203,0,0,0-.417-2.14453A13.98116,13.98116,0,0,0,1279,411.49365a5.50424,5.50424,0,0,0-.91895-1.5376,3.69185,3.69185,0,0,0-1.335-.99414,2.72988,2.72988,0,0,0-1.81543-.0625,2.98624,2.98624,0,0,0-2.36523,1.9419A6.66253,6.66253,0,0,0,1272.69141,414.40527Z" transform="translate(-644.33162 -167.64697)"/><path class="cls-13" d="M1295.58984,431.51563q.09375.47094.15723,1.09033.063.61962.083,1.228c.01269.40528.01855.77735.01953,1.11768a6.80922,6.80922,0,0,1-.03125.76074l-3.30273.00879a12.59728,12.59728,0,0,0,.08593-1.50635,12.79232,12.79232,0,0,0-.29883-2.61181,9.71817,9.71817,0,0,0-.62011-1.977q-.416-.95655-.55762-1.25489l-17.13965,3.43213-.73047-3.64746,19.53223-3.91113a25.17658,25.17658,0,0,1,1.52734,3.03906A21.11507,21.11507,0,0,1,1295.58984,431.51563Z" transform="translate(-644.33162 -167.64697)"/><path class="cls-13" d="M1279.4375,447.35742a7.33148,7.33148,0,0,0,1.08008,3.25879,2.02946,2.02946,0,0,0,2.05859.812,2.54821,2.54821,0,0,0,1.98145-1.37988,17.08221,17.08221,0,0,0,1.26953-3.78174q.30175-1.25683.63867-2.417a8.01989,8.01989,0,0,1,.89356-2.05029,5.15045,5.15045,0,0,1,1.43945-1.50293,5.23617,5.23617,0,0,1,2.26562-.81446,5.29618,5.29618,0,0,1,4.62793,1.38819,8.70459,8.70459,0,0,1,2.4043,5.269,15.92028,15.92028,0,0,1,.1543,1.75586q.02635.88476-.002,1.65771-.0293.77124-.10351,1.36915-.07617.59619-.14746.93066l-3.26465-.21191a9.42628,9.42628,0,0,0,.38183-1.95557,12.11775,12.11775,0,0,0-.10644-3.09668,5.69227,5.69227,0,0,0-1.00488-2.60254,2.05478,2.05478,0,0,0-2.08692-.86865,2.64286,2.64286,0,0,0-1.15039.42969,2.76261,2.76261,0,0,0-.81445.92724,6.52,6.52,0,0,0-.5791,1.43848q-.24171.843-.47559,2.00928-.34276,1.54467-.709,2.771a8.2711,8.2711,0,0,1-.96192,2.14063,4.846,4.846,0,0,1-1.54,1.49707,6.313,6.313,0,0,1-2.41113.79541,4.95959,4.95959,0,0,1-4.62207-1.49024,10.64727,10.64727,0,0,1-2.34277-5.82324,15.93194,15.93194,0,0,1-.167-4.34131q.23-1.60986.3877-2.19873l3.26465.2124q-.145.66724-.41895,2.12256A11.75919,11.75919,0,0,0,1279.4375,447.35742Z" transform="translate(-644.33162 -167.64697)"/><path class="cls-13" d="M1274.832,550.86914q1.88526-.38672,3.69824-.70312,1.81349-.31641,3.69239-.66211l1.99414-12.39991-6.58985-3.6123.6416-3.98877q4.08985,2.27783,7.56055,4.25488,3.47022,1.97535,6.57422,3.83252,3.10547,1.856,5.916,3.646,2.8125,1.79,5.54492,3.6875l-.56543,3.51367q-3.19042.94629-6.4209,1.76367-3.23145.81738-6.76074,1.60547-3.53028.791-7.44531,1.57813-3.91554.78809-8.51368,1.66992Zm10.72754-1.96289q3.63867-.71191,7.05762-1.4375,3.41894-.72363,6.59668-1.5918-2.73925-1.86034-5.75782-3.62109-3.019-1.76074-6.25781-3.5376Z" transform="translate(-644.33162 -167.64697)"/><path class="cls-13" d="M1279.11035,578.209a14.6227,14.6227,0,0,1-4.08887-1.63769,9.853,9.853,0,0,1-2.90918-2.584,8.2758,8.2758,0,0,1-1.47753-3.38867,9.4353,9.4353,0,0,1,.168-4.05566,9.66,9.66,0,0,1,1.22071-2.97461,10.0014,10.0014,0,0,1,1.38281-1.7832l-8.082-1.97559.88379-3.61328,26.77148,6.54394q-.00292,1.35792-.10351,3.37207a24.56729,24.56729,0,0,1-.71778,4.53907,11.67026,11.67026,0,0,1-1.76465,4.01562,9.25567,9.25567,0,0,1-2.877,2.67383,9.5696,9.5696,0,0,1-3.82129,1.22754A13.119,13.119,0,0,1,1279.11035,578.209Zm.9209-3.76855a7.98714,7.98714,0,0,0,5.86719-.41895,6.20727,6.20727,0,0,0,3.04394-4.19726,21.85666,21.85666,0,0,0,.50489-2.57324,10.58714,10.58714,0,0,0,.085-1.52442l-12.74512-3.11523a7.624,7.624,0,0,0-1.51465,1.64746,7.39138,7.39138,0,0,0-1.16992,2.59668,5.985,5.985,0,0,0-.08691,2.7998,5.0183,5.0183,0,0,0,1.1123,2.18653,6.758,6.758,0,0,0,2.085,1.58008A13.19675,13.19675,0,0,0,1280.03125,574.44043Z" transform="translate(-644.33162 -167.64697)"/><path class="cls-13" d="M1285.584,594.01465q-.14355.45849-.38574,1.03223-.24169.57422-.51562,1.11718c-.18262.36231-.35645.69141-.51856.99024a6.66094,6.66094,0,0,1-.39258.65332l-2.90234-1.57617a12.52916,12.52916,0,0,0,.79785-1.28028,12.84509,12.84509,0,0,0,.99024-2.43554,9.71818,9.71818,0,0,0,.40332-2.03223q.09375-1.04.11328-1.36817l-16.68653-5.20605,1.10743-3.55176,19.01562,5.93262a25.15406,25.15406,0,0,1-.11719,3.39941A21.095,21.095,0,0,1,1285.584,594.01465Z" transform="translate(-644.33162 -167.64697)"/><path class="cls-13" d="M1261.65625,598.27441l1.252-3.50293,19.58594,7.00489-1.25293,3.50293Zm23.75781,6.501a2.38864,2.38864,0,0,1,1.19434-1.37891,2.6136,2.6136,0,0,1,3.35254,1.19922,2.51861,2.51861,0,0,1-1.14551,3.20118,2.6128,2.6128,0,0,1-3.35156-1.19825A2.3892,2.3892,0,0,1,1285.41406,604.77539Z" transform="translate(-644.33162 -167.64697)"/><path class="cls-13" d="M1256.81836,609.7002q1.34327-3.16846,3.17383-3.99219a5.84989,5.84989,0,0,1,4.584.26758l23.20508,9.19433-.77539,3.69434-23.24219-9.209a5.98546,5.98546,0,0,0-1.47168-.41113,2.07733,2.07733,0,0,0-1.084.12988,2.25042,2.25042,0,0,0-.85645.69336,9.86326,9.86326,0,0,0-.82324,1.26563Z" transform="translate(-644.33162 -167.64697)"/><path class="cls-13" d="M1202.81836,702.55273q.97706.356,2.51269.874,1.53516.51708,3.31543,1.125,1.77979.60644,3.70118,1.208,1.92041.60059,3.627,1.13964t3.09473.92188q1.38867.38232,2.16015.54883-3.17284-3.523-7.02734-7.45606-3.854-3.93456-7.83594-7.876l2.5752-2.79395q2.53857,2.55762,5.09472,5.18457,2.5547,2.62792,4.98242,5.21875,2.42578,2.58984,4.69336,5.08789,2.26758,2.49756,4.2295,4.7959l-2.30469,2.5q-2.02589-.3999-4.63086-1.11328-2.60449-.71631-5.37207-1.5791-2.76709-.86426-5.47949-1.78711-2.7129-.92286-4.95215-1.68067.939,2.17091,2.07812,4.79883,1.14112,2.62794,2.22657,5.31641,1.08544,2.68652,2.01074,5.22558.92432,2.53712,1.48633,4.52539l-2.30469,2.5q-10.77393-8.083-21.76465-17.2871l2.5752-2.79395q4.2539,3.64746,8.4873,7.16992,4.23341,3.52,8.00293,6.39649-.23-.7544-.72363-2.10743-.49365-1.35351-1.16992-3.00976-.6753-1.65673-1.43067-3.52246-.75585-1.86621-1.50488-3.59082-.75-1.72413-1.39063-3.21289-.64159-1.48829-1.07617-2.43262Z" transform="translate(-644.33162 -167.64697)"/><path class="cls-13" d="M1194.33789,735.71387a10.80371,10.80371,0,0,1-3.1875,2.11426,6.14865,6.14865,0,0,1-2.93848.4541,6.22662,6.22662,0,0,1-2.68652-.96289,12.21857,12.21857,0,0,1-2.46191-2.11426l-8.74414-9.61914q.30029-.38234.84375-1.06446.542-.6826,1.25976-1.49707.71924-.81444,1.584-1.73632.86571-.92139,1.78222-1.75586a13.69114,13.69114,0,0,1,2.63965-1.91309,7.24918,7.24918,0,0,1,2.66113-.87891,5.2204,5.2204,0,0,1,2.62891.39454,7.196,7.196,0,0,1,2.51563,1.876,5.91914,5.91914,0,0,1,1.47363,2.66114,5.57589,5.57589,0,0,1-.06055,2.75781,8.82773,8.82773,0,0,1-1.31836,2.71191,15.28792,15.28792,0,0,1-2.24414,2.52637q-.41455.37647-.89941.73633-.4834.35888-.95117.64843-.46583.28859-.81641.499c-.2334.13867-.39844.23535-.49512.28808l.7002.76954a8.39881,8.39881,0,0,0,1.37207,1.21191,4.17233,4.17233,0,0,0,1.6084.69922,3.64728,3.64728,0,0,0,1.80468-.126,5.571,5.571,0,0,0,2.01368-1.26367,17.56863,17.56863,0,0,0,2.208-2.3584,11.34579,11.34579,0,0,0,1.16114-1.78516l2.39746,1.9834a11.48886,11.48886,0,0,1-1.35938,2.07325A20.734,20.734,0,0,1,1194.33789,735.71387Zm-12.77539-13.57715q-.97706.8877-1.69141,1.61816a10.2174,10.2174,0,0,0-1.10937,1.30664l4.16992,4.58789a4.8185,4.8185,0,0,0,1.19141-.623,14.59921,14.59921,0,0,0,1.707-1.36328,14.104,14.104,0,0,0,1.23633-1.28614,5.48524,5.48524,0,0,0,.93652-1.52636,3.68678,3.68678,0,0,0,.26172-1.64454,2.7254,2.7254,0,0,0-.78516-1.63671,2.98643,2.98643,0,0,0-2.81738-1.19629A6.66822,6.66822,0,0,0,1181.5625,722.13672Z" transform="translate(-644.33162 -167.64697)"/><path class="cls-13" d="M1167.45215,721.08984a8.25308,8.25308,0,0,1,1.03418-.69531,6.3776,6.3776,0,0,1,1.1914-.5664l1.56153,2.65234a7.00967,7.00967,0,0,0-.83789.42969,6.45785,6.45785,0,0,0-.792.54882,3.09927,3.09927,0,0,0-1.36524,2.65235,6.06024,6.06024,0,0,0,1.56543,3.19238l12.99023,15.78223-2.87207,2.36328-12.96484-15.751q-2.54151-3.08789-2.36914-5.74219A6.92011,6.92011,0,0,1,1167.45215,721.08984Zm16.3164,28.06836a2.387,2.387,0,0,1,1.73145-.57129,2.61366,2.61366,0,0,1,2.2627,2.749,2.51929,2.51929,0,0,1-2.625,2.16015,2.61185,2.61185,0,0,1-2.2627-2.748A2.38679,2.38679,0,0,1,1183.76855,749.1582Z" transform="translate(-644.33162 -167.64697)"/><path class="cls-13" d="M1073.92285,792.63574a15.63852,15.63852,0,0,1-.86523-3.64258,7.54164,7.54164,0,0,1,.36914-3.34277,7.07926,7.07926,0,0,1,1.98047-2.88086,11.68927,11.68927,0,0,1,3.94531-2.208,13.12881,13.12881,0,0,1,4.55469-.81152,11.26784,11.26784,0,0,1,1.749.13574,5.94863,5.94863,0,0,1,1.26758.33008l-.38672,3.41309a15.88066,15.88066,0,0,0-2.47754-.44727,7.53668,7.53668,0,0,0-3.36621.51074,5.40613,5.40613,0,0,0-3.457,2.79688q-.74707,1.82081.459,5.1709l6.248,17.34863-3.65039,1.31445Z" transform="translate(-644.33162 -167.64697)"/><path class="cls-13" d="M1049.44434,791.22852q1.144-.65772,3.06543-1.57715a29.07181,29.07181,0,0,1,4.57714-1.67383,10.30589,10.30589,0,0,1,4.07715-.42969,6.50424,6.50424,0,0,1,3.08106,1.1836,8.04342,8.04342,0,0,1,2.21,2.51171,15.75055,15.75055,0,0,1,1.47754,3.59375l3.18945,11.23536-3.57812,1.0166-2.97168-10.4668q-1.03859-3.65625-2.63965-4.90527a4.67446,4.67446,0,0,0-4.335-.47461q-.57715.16405-1.18164.37695c-.40332.1416-.77832.28418-1.127.42383q-.52294.21093-.94824.39453a2.97112,2.97112,0,0,0-.59668.31445l4.79492,16.89258-3.57812,1.0166Z" transform="translate(-644.33162 -167.64697)"/><path class="cls-13" d="M1047.61426,811.83984q-1.18945.57129-3.19336,1.35059a29.38664,29.38664,0,0,1-4.707,1.33691,10.552,10.552,0,0,1-4.17676.14454,6.44805,6.44805,0,0,1-2.96094-1.39258,7.57394,7.57394,0,0,1-1.96094-2.67969,17.56806,17.56806,0,0,1-1.17382-3.71973l-2.35352-11.44043,3.64356-.749,2.19335,10.65625a17.75046,17.75046,0,0,0,.915,3.16016,5.547,5.547,0,0,0,1.28614,1.98144,3.40724,3.40724,0,0,0,1.8125.873,7.033,7.033,0,0,0,2.50586-.12793c.3916-.08008.79394-.17774,1.207-.28906q.61816-.16846,1.1748-.34375c.37012-.11719.70117-.23243.99024-.34668s.49707-.19825.62207-.25l-3.53907-17.2002,3.64356-.75Z" transform="translate(-644.33162 -167.64697)"/><path class="cls-13" d="M1017.68555,796.83789l3.67773-.55566,3.10938,20.5664-3.67871.55567Zm5.52929,24.00293a2.38881,2.38881,0,0,1,1.78028.39844,2.61429,2.61429,0,0,1,.53222,3.52051,2.52083,2.52083,0,0,1-3.3623.50781,2.61328,2.61328,0,0,1-.53223-3.51953A2.39128,2.39128,0,0,1,1023.21484,820.84082Z" transform="translate(-644.33162 -167.64697)"/><path class="cls-13" d="M897.51855,799.87109a15.64915,15.64915,0,0,1,1.2212-3.53906,7.53723,7.53723,0,0,1,2.103-2.625,7.09361,7.09361,0,0,1,3.21631-1.37109,11.67512,11.67512,0,0,1,4.51416.25,13.07466,13.07466,0,0,1,4.27979,1.75586,11.20126,11.20126,0,0,1,1.40478,1.05175,5.96707,5.96707,0,0,1,.89258.957l-2.15527,2.6748a15.777,15.777,0,0,0-1.85254-1.70508,7.53148,7.53148,0,0,0-3.11572-1.37207,5.40036,5.40036,0,0,0-4.41748.50879q-1.60621,1.13671-2.38282,4.61133l-4.021,17.99609-3.78662-.8457Z" transform="translate(-644.33162 -167.64697)"/><path class="cls-13" d="M877.61084,785.56738q1.31908.05714,3.43359.31153a28.92911,28.92911,0,0,1,4.76123,1.03906,10.32117,10.32117,0,0,1,3.67334,1.82129,6.51743,6.51743,0,0,1,1.9668,2.65039,8.03585,8.03585,0,0,1,.52,3.30469,15.74426,15.74426,0,0,1-.67773,3.82617l-3.32715,11.19531-3.56592-1.05957,3.09912-10.42871q1.08252-3.64307.39941-5.55664a4.67215,4.67215,0,0,0-3.40576-2.72266q-.57495-.17139-1.1997-.31543-.624-.14355-1.17871-.24609-.55372-.10107-1.01221-.17481a2.97213,2.97213,0,0,0-.67237-.05371l-5.00195,16.832-3.56592-1.05957Z" transform="translate(-644.33162 -167.64697)"/><path class="cls-13" d="M866.35742,780.48535q3.2124,1.23341,4.09717,3.03613a5.84178,5.84178,0,0,1-.11182,4.58985l-8.40088,23.5039-3.71826-.64941,8.41455-23.541a6.03481,6.03481,0,0,0,.36084-1.48535,2.08269,2.08269,0,0,0-.1665-1.0791,2.2481,2.2481,0,0,0-.72217-.832,9.92148,9.92148,0,0,0-1.293-.78027Z" transform="translate(-644.33162 -167.64697)"/><path class="cls-13" d="M851.32227,801.41992a2.38386,2.38386,0,0,1,1.33789,1.23926,2.61279,2.61279,0,0,1-1.311,3.30957,2.51895,2.51895,0,0,1-3.16113-1.251,2.61317,2.61317,0,0,1,1.311-3.31054A2.388,2.388,0,0,1,851.32227,801.41992Zm7.29443-23.52734,3.459,1.37012-7.6582,19.33886-3.4585-1.37011Z" transform="translate(-644.33162 -167.64697)"/><path class="cls-13" d="M768.86963,722.20313q-.64088,1.81494-1.3042,3.53125-.66357,1.7168-1.335,3.50488l9.6001,8.09961,6.49121-3.78711,3.08789,2.60547q-4.05909,2.33056-7.542,4.28711-3.4812,1.95556-6.67237,3.66015-3.19042,1.70361-6.17285,3.19141-2.98169,1.48829-6.01709,2.85254l-2.72119-2.2959q.83422-3.22119,1.79834-6.41113.96387-3.19044,2.10644-6.62305,1.14258-3.43214,2.48389-7.19336,1.34253-3.76171,2.95606-8.15625Zm-3.84668,10.2041q-1.26489,3.48633-2.40479,6.79-1.13891,3.30321-2.03369,6.47363,3.00439-1.39014,6.06934-3.06934,3.06591-1.68016,6.25683-3.53906Z" transform="translate(-644.33162 -167.64697)"/><path class="cls-13" d="M751.74561,706.53027q1.13745.66944,2.88623,1.88575a29.06842,29.06842,0,0,1,3.71679,3.15136,10.30619,10.30619,0,0,1,2.38867,3.333,6.50722,6.50722,0,0,1,.49317,3.2627,8.03889,8.03889,0,0,1-1.0918,3.16308,15.731,15.731,0,0,1-2.39355,3.05957l-8.1919,8.3252-2.65136-2.6084,7.63037-7.75586q2.666-2.70849,2.96045-4.71875a4.67332,4.67332,0,0,0-1.73-4.00293q-.42774-.4204-.91163-.84082-.48339-.4204-.92578-.77051-.44091-.3501-.811-.62988a2.98434,2.98434,0,0,0-.56885-.36328L740.23,723.53809l-2.65185-2.60938Z" transform="translate(-644.33162 -167.64697)"/><path class="cls-13" d="M737.95459,693.39941a9.88543,9.88543,0,0,1,1.84375.85645,9.46053,9.46053,0,0,1,2.5,2.08984,10.33781,10.33781,0,0,1,1.88477,3.05567,7.68412,7.68412,0,0,1,.51611,3.40722,8.9858,8.9858,0,0,1-1.06641,3.54395,12.52231,12.52231,0,0,1-2.8916,3.49707,12.32389,12.32389,0,0,1-3.58935,2.24707,9.28116,9.28116,0,0,1-3.77149.67676,9.07222,9.07222,0,0,1-3.72119-.96485,10.97532,10.97532,0,0,1-3.38379-2.67089,23.9,23.9,0,0,1-2.71-3.66309q-.9939-1.708-1.625-2.91113l13.94678-12.2461q3.60717-3.167,6.86621-2.72851,3.26.43945,6.585,4.22558a20.493,20.493,0,0,1,2.20068,2.99121,21.19006,21.19006,0,0,1,1.42188,2.77149l-2.8833,1.626a17.40287,17.40287,0,0,0-1.22168-2.57325,16.42948,16.42948,0,0,0-1.9751-2.76367q-2.18994-2.49462-4.14551-2.72168a5.40291,5.40291,0,0,0-4.11914,1.67481Zm-11.57568,10.21778a12.60076,12.60076,0,0,0,.76416,1.32519,18.21346,18.21346,0,0,0,1.5708,2.001,5.65415,5.65415,0,0,0,4.521,2.17773,7.90431,7.90431,0,0,0,4.97657-2.21289,9.13959,9.13959,0,0,0,2.01074-2.37793,6.09349,6.09349,0,0,0,.7749-2.33105,4.85177,4.85177,0,0,0-.25586-2.1709,5.70254,5.70254,0,0,0-1.085-1.8418,8.436,8.436,0,0,0-2.11035-1.7666,6.68959,6.68959,0,0,0-2.0293-.82617Z" transform="translate(-644.33162 -167.64697)"/><path class="cls-13" d="M680.06348,592.88086q-1.9424-5.75976-5.88477-4.43164a4.169,4.169,0,0,0-1.89307,1.208,5.23756,5.23756,0,0,0-1.01171,1.88183,10.18562,10.18562,0,0,0-.40918,2.35449q-.07764,1.27149-.11084,2.67579a25.28764,25.28764,0,0,1-.19776,3.10644,10.0619,10.0619,0,0,1-.72412,2.73438,6.60874,6.60874,0,0,1-1.523,2.18066,7.02922,7.02922,0,0,1-2.65722,1.50879,6.9468,6.9468,0,0,1-6.17481-.53516,10.46123,10.46123,0,0,1-4.11865-5.83007,18.06353,18.06353,0,0,1-.95166-4.51172,10.49572,10.49572,0,0,1,.15283-3.23926l3.39063.165a10.97652,10.97652,0,0,0-.16749,2.69531,13.44532,13.44532,0,0,0,.75928,3.81738,8.57564,8.57564,0,0,0,.89209,1.89453,5.34884,5.34884,0,0,0,1.21924,1.36133,3.56026,3.56026,0,0,0,1.52051.69043,3.46919,3.46919,0,0,0,1.78271-.1582,3.69016,3.69016,0,0,0,1.64112-1.01758,4.3502,4.3502,0,0,0,.87353-1.60254,10.59116,10.59116,0,0,0,.40967-2.10156q.11646-1.15724.16211-2.52441.10694-1.93506.31006-3.58692a10.76047,10.76047,0,0,1,.79931-3.01269,6.88867,6.88867,0,0,1,1.71192-2.37207,8.36525,8.36525,0,0,1,2.97314-1.63575,6.53807,6.53807,0,0,1,6.15625.73145q2.70777,1.894,4.25391,6.48047a19.258,19.258,0,0,1,.75635,2.93164,22.53209,22.53209,0,0,1,.29345,2.49707,14.21738,14.21738,0,0,1-.0122,1.96777q-.07251.84667-.15967,1.34082l-3.40283-.07617a17.44693,17.44693,0,0,0,.20459-3.02441A14.39016,14.39016,0,0,0,680.06348,592.88086Z" transform="translate(-644.33162 -167.64697)"/><path class="cls-13" d="M668.6123,582.292a13.25519,13.25519,0,0,1-4.86572.44239,10.05654,10.05654,0,0,1-3.84424-1.18848,8.60862,8.60862,0,0,1-2.74121-2.42676,9.48581,9.48581,0,0,1-1.54638-3.23437,8.00748,8.00748,0,0,1,.90966-6.89258q1.97022-2.82861,7.15625-4.18164c.15479-.04.355-.09278.6001-.15625a5.64431,5.64431,0,0,1,.6875-.1377l3.59375,13.77832a7.608,7.608,0,0,0,4.28613-3.06054q1.21217-2.00977.3335-5.37793A13.65363,13.65363,0,0,0,672.02,566.749a11.80209,11.80209,0,0,0-1.14844-1.78808l2.8877-1.291a11.05941,11.05941,0,0,1,1.33593,2.11133,16.94775,16.94775,0,0,1,1.36133,3.63379,12.24919,12.24919,0,0,1,.39258,4.75488,8.76469,8.76469,0,0,1-1.36377,3.72559,9.20817,9.20817,0,0,1-2.83008,2.70117A14.4586,14.4586,0,0,1,668.6123,582.292Zm-5.57763-13.30273a6.24507,6.24507,0,0,0-3.688,2.26367,4.33744,4.33744,0,0,0-.66406,3.87305,4.9023,4.9023,0,0,0,1.0542,2.06054,5.31845,5.31845,0,0,0,1.67675,1.27832,5.97782,5.97782,0,0,0,2.04786.56153,9.0618,9.0618,0,0,0,2.17773-.05176Z" transform="translate(-644.33162 -167.64697)"/><path class="cls-13" d="M659.51855,541.19336a14.65251,14.65251,0,0,1,4.4004-.17676,9.86805,9.86805,0,0,1,3.71191,1.16895,8.26261,8.26261,0,0,1,2.73389,2.4873,9.42518,9.42518,0,0,1,1.50488,3.77051,9.6637,9.6637,0,0,1,.102,3.21387,10.02015,10.02015,0,0,1-.5332,2.19238l8.18359-1.501.67139,3.65821L653.186,560.98145q-.553-1.24072-1.28418-3.12012a24.50723,24.50723,0,0,1-1.20069-4.43555,11.66509,11.66509,0,0,1-.03174-4.38672,9.26916,9.26916,0,0,1,1.53223-3.61621,9.56777,9.56777,0,0,1,2.98486-2.68262A13.13836,13.13836,0,0,1,659.51855,541.19336Zm.7002,3.81641a7.98713,7.98713,0,0,0-5.18311,2.78125,6.20252,6.20252,0,0,0-1.06152,5.07421,21.93055,21.93055,0,0,0,.59082,2.55567,10.55412,10.55412,0,0,0,.54639,1.4248l12.9043-2.36816a7.617,7.617,0,0,0,.70849-2.12207,7.36413,7.36413,0,0,0,.00635-2.84766,5.98218,5.98218,0,0,0-1.06494-2.59082,5.03191,5.03191,0,0,0-1.90967-1.541,6.79577,6.79577,0,0,0-2.54834-.58985A13.23238,13.23238,0,0,0,660.21875,545.00977Z" transform="translate(-644.33162 -167.64697)"/><path class="cls-13" d="M656.20605,442.72119a17.20712,17.20712,0,0,1-5.94873-2.2749,12.97833,12.97833,0,0,1-3.88476-3.7168,11.9194,11.9194,0,0,1-1.85205-4.69629,14.34129,14.34129,0,0,1,.10888-5.22021,13.92366,13.92366,0,0,1,1.89747-4.78028,11.81091,11.81091,0,0,1,3.50878-3.55908,13.14848,13.14848,0,0,1,5.01416-1.91113,19.1327,19.1327,0,0,1,12.31446,2.47119,13.13209,13.13209,0,0,1,3.88867,3.69727,11.79058,11.79058,0,0,1,1.86426,4.6372,13.9226,13.9226,0,0,1-.09375,5.14209,14.335,14.335,0,0,1-1.91309,4.8584,11.89782,11.89782,0,0,1-3.52051,3.61817,12.96177,12.96177,0,0,1-5.01806,1.93066A17.20372,17.20372,0,0,1,656.20605,442.72119Zm.80274-4a15.39693,15.39693,0,0,0,4.61621.27344,10.23533,10.23533,0,0,0,3.79-1.09619,7.96849,7.96849,0,0,0,2.74316-2.38672,9.06151,9.06151,0,0,0,1.51612-3.5918,8.925,8.925,0,0,0-.01709-3.87939,8.02154,8.02154,0,0,0-1.61426-3.24073,10.25381,10.25381,0,0,0-3.07324-2.47314,16.70967,16.70967,0,0,0-8.981-1.80176,10.25354,10.25354,0,0,0-3.78955,1.09571,8.02466,8.02466,0,0,0-2.73975,2.36718,8.93232,8.93232,0,0,0-1.5122,3.57227,9.06441,9.06441,0,0,0,.01318,3.89892,7.96833,7.96833,0,0,0,1.61035,3.26026,10.23749,10.23749,0,0,0,3.07324,2.47314A15.39146,15.39146,0,0,0,657.00879,438.72119Z" transform="translate(-644.33162 -167.64697)"/><path class="cls-13" d="M667.54443,404.3252a25.09285,25.09285,0,0,1,2.896-1.80665q1.67871-.90893,3.55762-1.71923,1.8794-.80933,3.75732-1.47461a35.86811,35.86811,0,0,1,3.4458-1.04395l-1.21142,4.18848a33.13017,33.13017,0,0,0-3.28614,1.06933q-1.708.65186-3.32861,1.43164a32.88287,32.88287,0,0,0-3.041,1.66065,22.03008,22.03008,0,0,0-2.46142,1.74512l9.60644,2.77783-1.03369,3.57324-29.20361-8.44434.41894-3.75146,18.21387,5.2666q-.65625-1.18872-1.44775-2.62549-.79248-1.43555-1.63379-2.8457-.84228-1.40844-1.62061-2.67529-.7793-1.26562-1.38623-2.19141l1.21143-4.18848q.70531,1.16236,1.55762,2.53272.85326,1.37035,1.70263,2.82373.85035,1.4546,1.69385,2.92578Q666.79688,403.02661,667.54443,404.3252Z" transform="translate(-644.33162 -167.64697)"/><path class="cls-13" d="M663.93408,384.89014l2.63428-7.42676,2.94043,1.043-2.63428,7.42676,9.04785,3.209a11.54819,11.54819,0,0,0,2.51172.63672,3.87141,3.87141,0,0,0,1.74854-.144,2.58671,2.58671,0,0,0,1.17431-.85645,5.31952,5.31952,0,0,0,.7876-1.50342,7.89107,7.89107,0,0,0,.54443-2.67138q-.01684-1.08839-.03417-1.519l3.14355.35108a13.76469,13.76469,0,0,1,.00439,2.08105,11.16444,11.16444,0,0,1-.67382,3.15674,9.697,9.697,0,0,1-1.6792,3.11768,5.09334,5.09334,0,0,1-2.269,1.55078,6.484,6.484,0,0,1-2.90136.22314,17.50006,17.50006,0,0,1-3.563-.90332L657.22412,386.457l.64063-3.72021Z" transform="translate(-644.33162 -167.64697)"/><path class="cls-13" d="M745.166,287.76611q-1.69629-.293-3.83545-.624-2.1394-.32959-4.502-.61475-2.36279-.28491-4.83593-.53222-2.47339-.24756-4.82715-.41944-2.35327-.17065-4.48828-.26123-2.13429-.08936-3.83545-.0708l16.44091,14.0708-2.4707,2.88672L711.752,284.17725l2.00244-2.33985q2.7422-.12744,6.1543-.02441,3.41235.10473,6.92041.3418,3.5083.23876,6.78369.59375,3.27685.356,5.71924.76171L723.7417,270.16748l2.47119-2.88672L747.273,285.30469Z" transform="translate(-644.33162 -167.64697)"/><path class="cls-13" d="M757.252,260.61719a13.15267,13.15267,0,0,1,2.63672,3.69287,10.25424,10.25424,0,0,1,.98047,3.8667,8.88356,8.88356,0,0,1-.645,3.75781,10.23873,10.23873,0,0,1-5.57715,5.51025,8.87809,8.87809,0,0,1-3.76562.59961,10.24169,10.24169,0,0,1-3.85449-1.02734,14.24012,14.24012,0,0,1-6.28321-6.35986,10.21481,10.21481,0,0,1-.99463-3.88086,8.87964,8.87964,0,0,1,.645-3.7583,10.24012,10.24012,0,0,1,5.57715-5.50977,8.88466,8.88466,0,0,1,3.76563-.59961,10.2253,10.2253,0,0,1,3.86865,1.04151A13.20035,13.20035,0,0,1,757.252,260.61719Zm-2.75976,2.72656a8.95478,8.95478,0,0,0-5.0459-2.85889,5.51752,5.51752,0,0,0-6.11768,6.04444,10.64331,10.64331,0,0,0,7.84327,7.939,5.51752,5.51752,0,0,0,6.11767-6.04443A8.95038,8.95038,0,0,0,754.49219,263.34375Z" transform="translate(-644.33162 -167.64697)"/><path class="cls-13" d="M766.44385,238.85986a104.85776,104.85776,0,0,1,4.54541,10.87061q1.91162,5.4309,3.19726,9.9209l-2.54394,2.19482q-4.25391-1.92919-9.34522-4.61621a104.81927,104.81927,0,0,1-10.08789-6.08887l3.02881-2.61279q1.64428,1.17041,3.59375,2.41992,1.94971,1.24952,3.93408,2.417,1.98488,1.16748,3.89258,2.21485,1.908,1.04883,3.46826,1.81543-.53026-1.65528-1.28759-3.69678-.75807-2.04053-1.6211-4.1748-.86352-2.13356-1.81445-4.2461-.95069-2.11157-1.86719-3.90967Z" transform="translate(-644.33162 -167.64697)"/></svg>