<?xml version="1.0" encoding="utf-8"?><svg id="Lager_1" data-name="Lager 1" xmlns="http://www.w3.org/2000/svg" xmlns:xlink="http://www.w3.org/1999/xlink" viewBox="0 0 542 542"><defs><style>.cls-1{fill:url(#Ny_övertoningsruta_1);}.cls-2{fill:none;stroke-miterlimit:10;stroke-width:30px;stroke:url(#Ny_övertoningsruta_1-2);}</style><linearGradient id="Ny_övertoningsruta_1" x1="255.1437" y1="702.03704" x2="574.99709" y2="702.03704" gradientUnits="userSpaceOnUse"><stop offset="0" stop-color="#ccb87a"/><stop offset="1" stop-color="#907747"/></linearGradient><linearGradient id="Ny_övertoningsruta_1-2" x1="0" y1="271" x2="542" y2="271" xlink:href="#Ny_övertoningsruta_1"/></defs><title>phone</title><path class="cls-1" d="M573.41992,802.99c-7.7699,30.24-26.26,50.29-57.43994,57.19a119.14666,119.14666,0,0,1-13.32007,1.73C477.97,861.35,457.68,854.29,438.28,844.22,409.5,829.27,384.41,809.27,360.86,787.24c-29.89-27.96-57.6-57.84-79.21-92.86-11.79-19.1-20.92-39.26-25.03-61.57-8.22-44.58,18.57-82.96,63.33-90.26,9.18-1.5,16.63,1.32,21.34,9.39a113.06316,113.06316,0,0,1,7.46,16.28c5.35,13.79,10.51,27.67,15.58,41.57A46.47388,46.47388,0,0,1,367,620.38c1.04,9.42-1.97,14.66-10.4,19.01-4.88,2.52-9.72,5.13-14.72,7.38-5.68,2.56-8.87,7.15-8.65,12.91.24,6.5.62,13.69,3.47,19.31,22.64,44.77,56.51,78.7,101.3,101.33,5.62,2.84,12.8,3.24,19.31,3.48,5.74.21,10.38-2.91,12.92-8.62,2.08-4.71,4.61005-9.23,6.94-13.83,5.31-10.46,12.52-14.14,23.83-10.53,13.77,4.4,27.22,9.78,40.79,14.81,5.45,2.02,10.95,3.97,16.23,6.4C573.62,779.2,577.65991,786.47,573.41992,802.99Z" transform="translate(-143 -430)"/><circle class="cls-2" cx="271" cy="271" r="256"/></svg>